<?xml version="1.0" encoding="utf-8"?>
<!-- Generator: Adobe Illustrator 21.0.0, SVG Export Plug-In . SVG Version: 6.00 Build 0)  -->
<svg version="1.1" id="_x31_" xmlns="http://www.w3.org/2000/svg" xmlns:xlink="http://www.w3.org/1999/xlink" x="0px" y="0px"
	 viewBox="0 0 1000 1000" style="enable-background:new 0 0 1000 1000;" xml:space="preserve">
<style type="text/css">
	.st0{fill:#FFFFFF;}
	.st1{fill:#ECECEC;}
	.st2{fill:#7BD4D0;}
	.st3{fill:#76CDC6;}
	.st4{fill:#70B0AB;}
	.st5{fill:#77BBB8;}
	.st6{fill:#CCD7CF;}
	.st7{fill:#DF3A52;}
	.st8{fill:#C42745;}
	.st9{fill:#DFAC86;}
	.st10{fill:#323A46;}
	.st11{fill:#665B56;}
	.st12{fill:#786C67;}
	.st13{fill:#2D95E4;}
	.st14{fill:#40AEF1;}
	.st15{fill:#238DCF;}
	.st16{fill:#E5B385;}
	.st17{fill:#665B54;}
	.st18{fill:#392D25;}
	.st19{fill:#21719A;}
	.st20{fill:#392F27;}
	.st21{fill:#F84456;}
	.st22{fill:#FFEF5E;}
</style>
<rect class="st0" width="1000" height="1000"/>
<g>
	<g>
		<g>
			<path class="st1" d="M394.3,673c6.8-6,13.5,14.9,23.7,3c6.8-8.9,13.5-14.9,23.7-11.9c-3.4,8.9,10.2,11.9,13.5,14.9
				c10.6,1.9,14.6-5.6,15.2-14.4c-17.5-20.3-40.9-45-50.9-44.8c-10.9,0.3-37.1,33.2-67.1,68.8c0.3,0.8,0.7,1.5,1.3,2.2
				C360.4,702.7,380.7,678.9,394.3,673z"/>
			<path class="st1" d="M611,533c6.8,6,6.8,17.9,13.5,17.9c23.7,8.9,3.4-32.8,20.3-20.8c9,5.3,15.3,22.1,30.7,23.9
				c-19.2-34.8-40.6-74.1-52.8-74.4c-10.1-0.2-38.9,44.9-66.9,93.4C579.6,575.9,595.3,546.8,611,533z"/>
			<path class="st1" d="M763.4,592.6c16.9,6-6.8,44.7,16.9,35.7c0,0,0-8.9,0-14.9c10.2,8.9,16.9,20.8,27.1,29.8
				c2.3,2,6.7,3.4,11.4,3.5c-24.1-46.6-44-81.9-48.9-81.9c-11.9,0.1-33.3,27.6-49,37.7C736.8,602,748.8,587.5,763.4,592.6z"/>
			<path class="st2" d="M653.6,568c0,3.9,1.5,7.8,3.1,12.4c0.8,3.1,5.4,6.2,4.7,9.3c-1.5,17.8,13.2,28.7,19.4,43.4
				c0.8,0,2.3,0,3.1,0c0,0.8,0,2.3,0,3.1c0.8,0,2.3,0,3.1,0c0,0.8,0,2.3,0,3.1c0.8,0,2.3,0,3.1,0c3.1,2.3,3.9,6.2,6.2,9.3
				c0.8,0,2.3,0,3.1,0c0,0.8,0,2.3,0,3.1c0.8,0,2.3,0,3.1,0c0.8,1.6-0.8,4.7,0,6.2c0.8,0,3.1,0,3.1,0c0.4-18.7,0-37.2-0.2-55.7
				c-7.5-8-18.3-27.3-29.9-48.3c-11-1.3-17.4-10.3-23.4-17.2C651.8,547.2,652,557.6,653.6,568z"/>
			<path class="st2" d="M818.7,646.7c-4.7-0.2-9-1.5-11.4-3.5c-10.2-8.9-16.9-20.8-27.1-29.8c0,0.4,0,0.8,0,1.2
				c1.7,2.1,3.8,4,5.9,6.1c0.8,1.5-0.8,4.7,0,5.4c6.2,4.7,10.9,10.9,10.9,16.3c1.5,15.5,9.3,28.7,13.2,43.4
				c1.5,6.2,1.5,12.4,3.9,18.6c0.8,3.1-0.8,7,0.8,9.3c2.3,3.9,4.7,7.8,5.4,12.4c0.8,41.1-2.3,83,1.5,124.1c0,4.7,0,10.9,2.3,14.7
				c0.7,1.5,1.1,3,1.4,4.5h102.3C927.9,869.6,865.4,737,818.7,646.7z"/>
			<path class="st2" d="M438.7,685.9c3.1-0.8,5.4,0.8,6.2,3.1c0.8,1.6-0.8,4.7,0,6.2c0.8,0,2.3,0,3.1,0c0.8,1.5-0.8,5.4,0,5.4
				c3.9,1.6,8.5,0,12.4,0.8c0,0.8,0,2.3,0,3.1c1.6,0.8,4.7-0.8,6.2,0c0,0.8,0,3.1,0,3.1c8.5,0.8,17.8,2.3,24-3.9
				c1.6-1.5,0-5.4,0.8-8.5c0.8,0,3.1,0,3.1,0c0.1-3.5,0.1-6.9,0.1-10.4c-1.9,3.6-2.9,5.6-2.9,5.6s-9.2-11.9-21.3-25.9
				c-0.7,8.8-4.6,16.2-15.2,14.4c-3.4-3-16.9-6-13.5-14.9c-4.3-1.3-8-0.9-11.3,0.6c1.4,5.4,4,10.6,8.3,15.1
				C439.4,681.2,438.7,683.6,438.7,685.9z"/>
			<path class="st3" d="M821.9,850.3c-3.9-41.1-0.8-83-1.5-124.1c-0.8-4.7-3.1-8.5-5.4-12.4c-1.6-2.3,0-6.2-0.8-9.3
				c-2.3-6.2-2.3-12.4-3.9-18.6c-3.9-14.7-11.6-27.9-13.2-43.4c0-5.4-4.7-11.6-10.9-16.3c-0.8-0.8,0.8-3.9,0-5.4
				c-2.1-2.1-4.2-4-5.9-6.1c0,5.9,0,13.7,0,13.7c-23.7,8.9,0-29.8-16.9-35.7c-14.5-5.1-26.6,9.5-42.6,10c-3.4,2.2-6.6,3.6-9.3,3.7
				c-1.6,0.1-3.7-1.4-6.1-4c0.2,18.5,0.5,37,0.2,55.7c0,0-2.3,0-3.1,0c-0.8-1.5,0.8-4.7,0-6.2c-0.8,0-2.3,0-3.1,0c0-0.8,0-2.3,0-3.1
				c-0.8,0-2.3,0-3.1,0c-2.3-3.1-3.1-7-6.2-9.3c-0.8,0-2.3,0-3.1,0c0-0.8,0-2.3,0-3.1c-0.8,0-2.3,0-3.1,0c0-0.8,0-2.3,0-3.1
				c-0.8,0-2.3,0-3.1,0c-6.2-14.7-20.9-25.6-19.4-43.4c0.8-3.1-3.9-6.2-4.7-9.3c-1.6-4.7-3.1-8.5-3.1-12.4
				c-1.6-10.4-1.7-20.8-1.4-31.2c-2.4-2.8-4.7-5.2-7.3-6.7c-16.9-11.9,3.4,29.8-20.3,20.8c-6.8,0-6.8-11.9-13.5-17.9
				c-15.7,13.8-31.4,42.9-55.1,40c-26.7,46.2-52.6,95.4-61.2,111.8c0,3.5-0.1,6.9-0.1,10.4c0,0-2.3,0-3.1,0c-0.8,3.1,0.8,7-0.8,8.5
				c-6.2,6.2-15.5,4.7-24,3.9c0,0,0-2.3,0-3.1c-1.6-0.8-4.7,0.8-6.2,0c0-0.8,0-2.3,0-3.1c-3.9-0.8-8.5,0.8-12.4-0.8
				c-0.8,0,0.8-3.9,0-5.4c-0.8,0-2.3,0-3.1,0c-0.8-1.6,0.8-4.7,0-6.2c-0.8-2.3-3.1-3.9-6.2-3.1c0-2.3,0.8-4.7,0-6.2
				c-4.3-4.5-6.9-9.7-8.3-15.1c-4.6,2-8.5,6.2-12.4,11.4c-10.2,11.9-16.9-8.9-23.7-3c-13.5,6-33.9,29.8-40.6,17.9
				c-0.5-0.7-0.9-1.5-1.3-2.2c-16.7,19.8-34.6,40.4-51.7,56.8c-48,45.7-128.1,124.3-128.1,124.3h653.1c-0.3-1.5-0.6-3.1-1.4-4.5
				C821.9,861.2,821.9,855,821.9,850.3z"/>
		</g>
		<g>
			<path class="st4" d="M674.9,798C657.8,781,637,781.7,637,781.7s-25.3-54.1-46.9-68.6c-6-4-13.8-6.6-21.8-8.2
				c-1.5,0.4-3,0.9-4.4,1.4c-5.1,2.9-8.7,9.4-15.2,10.1c0,0.7,0,2.9-0.7,2.9c-1.4,0-2.2,1.4-3.6,0.7c-4.3,8.7-13,7.2-21.7,8.7
				c-3.6,0.7-5.8,2.9-10.1,3.6c-0.7,0-3.6,0.7-2.9,3.6h-2.9c-7.2,9.4-12.3,20.9-22.4,24.5c-14.4,4.3-32.5-2.9-44,3.6
				c-13,7.2-20.2,23.8-33.2,31.8c-13.7,7.9-32.5-5.1-46.9,5.8c-1.4,0.7-4.3-0.7-4.3,0c-2.9,3.6-7.2,3.6-9.4,6.5
				c-0.7,0.7-2.9,0-3.6,0c-22.4,13.1-37.8,36.6-43.6,61.6h412.1C711.5,869.6,686.9,810,674.9,798L674.9,798z"/>
			<path class="st5" d="M343,808c0.7,0,2.9,0.7,3.6,0c2.2-2.9,6.5-2.9,9.4-6.5c0-0.7,2.9,0.7,4.3,0c14.4-10.8,33.2,2.2,46.9-5.8
				c13-7.9,20.2-24.5,33.2-31.8c11.5-6.5,29.6,0.7,44-3.6c10.1-3.6,15.2-15.2,22.4-24.5h2.9c-0.7-2.9,2.2-3.6,2.9-3.6
				c4.3-0.7,6.5-2.9,10.1-3.6c8.7-1.4,17.3,0,21.7-8.7c1.4,0.7,2.2-0.7,3.6-0.7c0.7,0,0.7-2.2,0.7-2.9c6.5-0.7,10.1-7.2,15.2-10.1
				c1.4-0.5,2.9-1,4.4-1.4c-18.4-3.8-37.7-2.5-37.7-2.5l-60.2,30.2c0,0-7.9,0.1-19.1,0.1c-8.5-0.1-41.4,7.5-70.9,17.7
				c-17.7,6.1-34.2,13.3-43.4,20.3c-5.8,4.4-8.5,11.2-26.4,11.2c-21.9,0-51.6,14.1-66.7,14.6c-15.1,0.5-28.3,2.6-37.3,8.3
				c-6.6,4.2-13.8,11.9-26.9,22.7c-15.4,12.7-34.1,26.3-42.9,25.7c-48.6-3.5-64.6,16.7-64.6,16.7h227.3
				C305.2,844.6,320.6,821.2,343,808L343,808z"/>
		</g>
		<g>
			<path class="st1" d="M218.8,208.8c3.2,0,6.3,0.9,9,2.4c1.7-17.4,13.7-30.9,28.3-30.9c11,0,20.6,7.7,25.3,19
				c4.7-6.1,11.5-9.9,19.1-9.9c11.5,0,21.3,8.9,24.7,21.2c0.4,0,0.8-0.1,1.2-0.1c9.5,0,17.1,8.9,17.1,19.9c0,11-7.7,19.9-17.1,19.9
				c-4.4,0-100.4,0-107.6,0c-10.7,0-19.3-9.3-19.3-20.8C199.5,218.1,208.1,208.8,218.8,208.8z"/>
			<path class="st6" d="M218.8,250.4c-10.7,0-19.3-9.3-19.3-20.8c0-2.1,0.3-4,0.8-5.9c1-0.2,2.1-0.4,3.2-0.4
				c6.2,0,11.7,4.4,14.4,10.7c2.7-3.4,6.5-5.6,10.8-5.6c6.5,0,12.1,5,14,12c0.2,0,0.5,0,0.7,0c5,0,9,4.4,9.6,10
				C235.6,250.4,221.4,250.4,218.8,250.4z"/>
			<path class="st1" d="M178.9,244.2c1.8,0,3.6,0.5,5.1,1.4c0.9-9.9,7.8-17.5,16-17.5c6.3,0,11.7,4.4,14.4,10.7
				c2.7-3.4,6.5-5.6,10.8-5.6c6.5,0,12.1,5.1,14,12c0.2,0,0.5,0,0.7,0c5.4,0,9.7,5.1,9.7,11.3c0,6.2-4.3,11.3-9.7,11.3
				c-2.5,0-56.8,0-60.9,0c-6,0-10.9-5.3-10.9-11.8C168,249.5,172.9,244.2,178.9,244.2z"/>
		</g>
	</g>
	<g>
		<path class="st7" d="M506.5,295.1c0,0-54-8.8-119.9,15.3c-65.9,24.1-142.2,75.5-178.6,53.7c-36.4-21.8-53.8-16.4-53.8-16.4
			s36.4,21.3,29.5,52.7c-6.9,31.4,3.5,94.4,62.4,88.8c59-5.6,57.2,25.9,65.9,27.5c8.6,1.6,65-43.5,108.3-55.3
			c43.4-11.9,149.5-60.9,158.3-90.1c8.8-29.2-0.3-61.7-12.6-74.9C556.5,286.1,506.5,295.1,506.5,295.1L506.5,295.1z"/>
		<path class="st8" d="M566.1,296.4c-9.6-10.3-59.6-1.3-59.6-1.3s-54-8.8-119.9,15.3c-8,2.9-16.1,6.2-24.3,9.8
			c-8.3,7.4-17.4,14.2-25.1,21.9c7.4-4.9,29.3-5.1,47.1-5c9.1,0,17,0.2,21.4-0.3c-1.4,2.2-12.4,10-22.6,18.3
			c-7.2,5.8-14.8,17.6-6.4,33.8c-3.1-6.6,10.3,13.5,19.3,21.1c14.3,12,30.9,21.5,36.6,31.9c2,3.7,3,14.8,12.3,11.3
			c12.2-4.6,26-10.3,40-16.8c43.2-19.9,88.2-46.6,93.8-65.1C587.5,342.1,578.4,309.6,566.1,296.4L566.1,296.4z"/>
		<path class="st9" d="M493.2,584.4c-7.2-0.2-14.3-0.4-21.5-0.3l-17.5,188.7l-20.9,6.1c0,0-10.1,0-10.1,2.4l0,2.4h27.5h16.3
			l-2.3-10.9C464.8,772.8,487.8,604.5,493.2,584.4L493.2,584.4z"/>
		<polygon class="st10" points="467.1,785.6 423.3,785.6 423.3,782.1 467.1,782.1 		"/>
		<path class="st9" d="M604.4,778.8l-20.9-6.1l-17.6-189.9c-7.1,0.7-14.2,1.2-21.4,1.5c5.5,20.1,26.5,178.3,28.9,188.4l-2.8,10.9
			H587h27.5l0-2.4C614.6,778.8,604.4,778.8,604.4,778.8L604.4,778.8z"/>
		<polygon class="st10" points="570.6,785.6 614.4,785.6 614.5,782.1 570.7,782.1 		"/>
		<path class="st11" d="M554.5,478.3l-81.1,4.3L458,614.9c0,0,4,3.3,15.1,5.4c11.3,2.1,20.6,1.2,20.6,1.2s14.9-113.4,14.9-113.8
			c0.5-4.9,3.6-8,8-8c4.4,0,7.3,2.7,8,8c0.1,0.8,21.6,112,21.6,112s8.6-0.1,19.3-2.4c10-2.1,14.6-5.3,14.6-5.3L554.5,478.3z"/>
		<path class="st12" d="M492.7,538c-5.4,20.8-7.6,79.9-7.6,79.9l-12,2.4c0,0,0.1,0,0.1,0c11.3,2.1,20.6,1.2,20.6,1.2
			s9-77.6,14.7-111.3c0.8-4.9,2.4-7.6,4-9c2.2-2,4.3-1.6,4.3-1.6c-0.5-2.6-3-3.2-5.6-2.6c-1.9,0.4-3.8,1.2-5,2.4
			C502.5,502.9,497.2,520.7,492.7,538L492.7,538z"/>
		<path class="st12" d="M554.5,478.3l-20.7,1.1L559.3,612c0,0-4.3,3-13.4,5.1c0.3,1.7,0.5,2.6,0.5,2.6s8.6-0.1,19.3-2.4
			c10-2.1,14.6-5.3,14.6-5.3L554.5,478.3z"/>
		<path class="st13" d="M473.4,482.6c8.4,3.4,30.5,3.7,37.8,3.4c36.6-1.6,41.9-4.9,42.9-10.1c-3.6-23.1,13.8-125.1,13.8-125.1
			l11.5,6.2l21.7-34.5l-37-25.6l-95.6-1.4L425,321.2l22.6,35.7l19.1-6.2L473.4,482.6z"/>
		<path class="st14" d="M579.4,357l21.7-34.5l-37-25.7l-81.9-1.2c-0.2,2.1,0.3,4.3,1.9,6.5c6.2,7.4,6.8,25.9,6.8,25.9
			c-1.9,14.8,4.9,47.6,6.8,48.8c6.2,5.6-3.1,14.8-4.3,22.2c-1.9,12.4-3.1,25.3,0.6,35.8c7.4,18.5,20.4,37.7,42.6,43.2
			c1.9,0.6,4.9,1.2,7.4,3.1c0.4,0.4,0.9,0.7,1.4,1c6.4-1.7,8-3.8,8.6-6.5c-3.6-23.1,13.8-125.1,13.8-125.1L579.4,357z"/>
		<path class="st15" d="M569.1,346.6l14.6,3.6l-4.3,6.9l-12.2-5.1c0,0-6-5.2-9.1-13l-3.2-7.9c0,0,5.8,8.2,6.9,10.4
			c1.2,2.2,3.4,5.8,3.4,5.8l-0.2-7.6L569.1,346.6z"/>
		<path class="st15" d="M472.1,344.5c2.9-17.7,1.6-32.3,1.6-32.3l-9.6,29.4l-22.4,6l5.8,9.2l19.1-6.2c0,0,0.5,14.1,1.3,25.1
			c0.6,7.8,1.5,45.4,3.3,54.6C471.3,430.3,471.6,355.2,472.1,344.5L472.1,344.5z"/>
		<path class="st16" d="M580.4,436.5c-1-0.7-1.7-1-1.7-1S579.4,435.9,580.4,436.5L580.4,436.5z"/>
		<path class="st16" d="M385.9,372.7c0,26.6,54.8,68.6,62.7,76.6c4.1,4.1,7,7.1,7.6,7.9c1.7,2.2,4.4,2.6,6.2,2.6
			c1.2-0.1,2-0.2,2-0.2s-0.8,0.2-2,0.2c-3.3,0.3-9.3,1.4-6.6,4.6c1.3,1.4,8.4,3.7,13.2,0.9c7.4-4.3,4.2-8.8,4.2-8.8s2.6-0.4,3.9-2.5
			c1.2-2,0.5-6.5,0.5-6.5s4.9-3.4,1.6-6.5c-1.3-1.2-5.8-1.6-11.8-3.3c-7.7-2.2-15-1.2-20.2-5.1c-1.4-1-47.2-43.3-42.4-61.3
			c2.5-9.2,36.7-23.8,36.7-23.8l-14.5-22.8c0,0,0.3,0.2-0.7,1.1C418.1,333.5,385.9,356.4,385.9,372.7L385.9,372.7z"/>
		<path class="st9" d="M426.3,326.2l1-1.4l14.5,22.9l-13.5,6.4c0,0,5.8-5.3,5.8-7c0-1.7-2-5.3-2.8-6.9
			C430.6,338.6,426.3,326.2,426.3,326.2L426.3,326.2z"/>
		<path class="st16" d="M504.9,247.5v58.7c0,7,5.6,12.6,12.6,12.6c7,0,12.6-5.6,12.6-12.6v-58.7
			C521.7,247.7,513.2,247.8,504.9,247.5L504.9,247.5z"/>
		<path class="st9" d="M504.9,245.7v30.6c0,7,5.6,12.6,12.6,12.6c7,0,12.6-5.6,12.6-12.6v-30.6H504.9z"/>
		<path class="st16" d="M571.1,200.5c-5.6-10.3-12.6-6.2-12.6-6.2s1-16.5-9.6-33.5c-9.1-14.7-24.2-11.5-31.5-9.5
			c-7.3-1.9-22.4-5.1-31.5,9.5c-10.6,17.1-9.6,33.5-9.6,33.5s-7-4.1-12.6,6.2c-3.7,6.8,0.3,15.8,5.9,21.5c2.8,2.9,6.3,4.1,6.3,4.1
			s0.2,17.6,21,38.1c6.9,6.8,14.3,10.5,20.5,12c6.2-1.5,13.6-5.2,20.5-12c20.8-20.5,21-38.1,21-38.1s3.5-1.2,6.3-4.1
			C570.8,216.3,574.8,207.3,571.1,200.5L571.1,200.5z"/>
		<path class="st9" d="M476,206c0,0-3.8-5.6-7.3-2.4c-1.6,1.4-1.1,3.7-0.2,5.8c1.2,2.5,6,8.1,6,8.1L476,206z"/>
		<path class="st9" d="M558.1,206c0,0,3.8-5.6,7.3-2.4c1.6,1.4,1.1,3.7,0.2,5.8c-1.2,2.5-6.1,8.1-6.1,8.1L558.1,206z"/>
		<path class="st9" d="M508.5,216l3-20.3c0,0-4.4-0.4-10.6,0.6c-6.2,1-17.1,6.4-17.1,6.4l8.8,17c0,0,1.1-7.1,8.1-8.3
			C507.6,210.2,508.5,216,508.5,216L508.5,216z"/>
		<polygon class="st17" points="512.3,190.6 483.9,198.1 483.9,202.6 511.1,197.4 		"/>
		<path class="st9" d="M527.4,215.5l-3-20.3c0,0,4.4-0.4,10.6,0.6c6.2,1,17.1,6.4,17.1,6.4l-8.8,17c0,0-1.1-7.1-8.1-8.3
			C528.2,209.7,527.4,215.5,527.4,215.5L527.4,215.5z"/>
		<polygon class="st17" points="523.7,190.6 552.1,198.5 552.1,202.1 524.9,196.9 		"/>
		<path class="st0" d="M501.8,249.5h30.5c0,0-8,10.9-14.9,10.9C509.4,260.4,501.8,249.5,501.8,249.5L501.8,249.5z"/>
		<path class="st9" d="M517.1,240.9c-2.7,0-4.9-1.7-5.5-4c-0.1,0.3-0.1,0.7-0.1,1.1c0,2.8,2.5,5,5.6,5c3.1,0,5.6-2.2,5.6-5
			c0-0.4,0-0.7-0.1-1.1C522,239.2,519.8,240.9,517.1,240.9L517.1,240.9z"/>
		<path class="st18" d="M546.6,139.4c-14-0.4-17.2-3-29.2-6c-5.9-1.4-16.3-4.1-30.2-2.6c-32.2,3.4-22.7,22-22.7,22s1.4-8.7,9.8-4.8
			c5.9,2.7-7.3,8-8.7,14.7c-1.4,6.8,4.2,21.7,4.2,21.7l1.9,11.5c0,0,6.5,4.2,6.8,7.4c0.3,3.1,0,7,0,7l2.2-0.4c0,0-0.3-16.5,3.1-23.3
			c3.4-6.8,8.1-12.1,15.9-14.7c5-1.7,30.8-1.7,35.8,0c7.9,2.7,12.6,8,15.9,14.7c3.4,6.8,3.1,23.3,3.1,23.3l2.2,0.4c0,0-0.3-3.9,0-7
			c0.3-3.1,6.8-7.4,6.8-7.4l1.9-11.5c0,0,5.6-15,4.2-21.7C568.4,155.9,563.7,139.9,546.6,139.4L546.6,139.4z"/>
		<path class="st17" d="M569.8,162.7c-1.4-6.8-6-22.8-23.1-23.3c-14-0.4-17.2-3-29.2-6c-5.9-1.4-16.3-4.1-30.2-2.6
			c-20.7,2.2-24.2,10.6-24,16.4c7.4-6.5,19.7-8.2,26.7-4.2c5.6,2.8,12,6.2,18.5,6.3c0.8-0.1,1.6-0.1,2.4-0.1
			c-0.8,0.1-1.6,0.1-2.4,0.1c-11.8,0.8-22.3,7.7-24.8,17.9c7.3-11,24.5-7.8,33.6-4.7c6.5,1.7,11.7,4.8,15.8,8.7
			c1.1,0.1,2,0.3,2.6,0.5c7.9,2.7,12.6,8,15.9,14.7c3.4,6.8,3.1,23.3,3.1,23.3l2.2,0.4c0,0-0.3-3.9,0-7c0.3-3.1,6.8-7.4,6.8-7.4
			l1.9-11.5C565.6,184.4,571.2,169.4,569.8,162.7L569.8,162.7z"/>
		<path class="st19" d="M480.8,213.4c0,0.9-0.7,1.6-1.6,1.6c-0.9,0-1.6-0.7-1.6-1.6v-9.7c0-0.9,0.7-1.6,1.6-1.6
			c0.9,0,1.6,0.7,1.6,1.6V213.4z"/>
		<rect x="512.3" y="209.8" class="st19" width="10.4" height="5.6"/>
		<path class="st13" d="M502,225.2l-8.5,0c-6.5-1-11.9-5.1-14.4-10.9c-1.6-3.7-1.6-7.5-0.1-9.8c1.8-2.6,6-3.9,13.1-3.9
			c5,0,9.6,0.7,10.1,0.7c9.3,0.9,11.2,6.8,11.2,11.6v0.7C513.4,220,508.3,225.2,502,225.2L502,225.2z M493.8,221.9h8.1
			c4.5,0,8.2-3.7,8.2-8.3v-0.7c0-5.1-2.6-7.8-8.3-8.3l-0.1,0c0,0-4.8-0.7-9.7-0.7c-7.9,0-9.9,1.7-10.4,2.5c-0.7,1.1-0.9,3.6,0.4,6.6
			C484.1,217.7,488.5,221,493.8,221.9L493.8,221.9z"/>
		<path class="st19" d="M553.5,213.1c0,0.9,0.7,1.6,1.6,1.6c0.9,0,1.6-0.7,1.6-1.6v-9.7c0-0.9-0.7-1.6-1.6-1.6
			c-0.9,0-1.6,0.7-1.6,1.6V213.1z"/>
		<path class="st13" d="M521,213.3v-0.7c0-4.8,1.9-10.7,11.2-11.6c0.6-0.1,5.2-0.7,10.2-0.7c7,0,11.3,1.3,13.1,3.9
			c1.5,2.3,1.5,6-0.1,9.8c-2.5,5.8-7.9,9.8-14.4,10.9l-8.5,0C526.1,224.9,521,219.7,521,213.3L521,213.3z M552.3,212.7
			c1.3-3,1.1-5.5,0.4-6.6c-0.5-0.7-2.5-2.5-10.4-2.5c-5,0-9.7,0.7-9.7,0.7l-0.1,0c-5.7,0.5-8.3,3.1-8.3,8.3v0.7
			c0,4.6,3.7,8.3,8.2,8.3h8.1C545.9,220.7,550.3,217.4,552.3,212.7L552.3,212.7z"/>
		<path class="st20" d="M504,215.1c0,2.3-1.7,4.1-3.8,4.1c-2.1,0-3.8-1.8-3.8-4.1c0-2.3,1.7-4.1,3.8-4.1
			C502.2,211,504,212.8,504,215.1L504,215.1z"/>
		<path class="st20" d="M539.6,214.1c0,2.3-1.7,4.1-3.8,4.1c-2.1,0-3.9-1.8-3.9-4.1c0-2.3,1.7-4.1,3.9-4.1
			C537.8,210,539.6,211.9,539.6,214.1L539.6,214.1z"/>
		<polygon class="st21" points="487.7,338.6 541.5,338.6 554.9,353.7 515.6,395.6 474.6,355.5 		"/>
		<polygon class="st22" points="489.5,342.8 479.8,355.3 515,390 549.2,353.9 538.5,342.4 		"/>
		<path class="st21" d="M207.8,378c1.6,1.6,32,35.6,34.5,36.8c16.7,8,39.1,0,71.1-24.7c29.7-28.4,54.5-64.5,92.1-78.5
			c30.7-11.4,49.4-7.4,54.4-9.3c1.2-0.6,30.7-5.9,40.9-7.9c-16.7-1.6-63.9-10.1-115.2,10.6c-52.6,21.2-111.5,61.5-151.5,64.3
			c-9.9,0.7-20-1.4-27.2-6.2c-20.8-14-33.6-14-42.4-15.7C174.9,351.5,183.4,352.9,207.8,378L207.8,378z"/>
		<polygon class="st10" points="429.7,778.8 429.7,783.7 446.4,783.4 444,775.5 		"/>
		<polygon class="st10" points="605.8,778.9 605.8,782.9 589.1,782.6 591.5,774.7 		"/>
		<path class="st17" d="M557,213.4c0,0,1.1,17.3-1.6,23.6c-2.6,6.3-15.1,8.7-15.1,8.7l-17.7-6c-1.7,4-5.9,3.8-5.9,3.8
			c-0.8-0.2-4-1.2-5.3-3.5l-17.2,5.7c0,0-12.5-2.5-15.1-8.7c-2.6-6.3-1.6-23.6-1.6-23.6s-2.4,17.9-1.7,23.6
			c0.7,5.7,14.4,31.7,21.6,39.3c7.2,7.7,15.8,6.9,15.8,6.9h3.2h1.5h3.2c0,0,8.5,0.8,15.8-6.9c7.2-7.7,21-33.7,21.7-39.3
			C559.4,231.3,557,213.4,557,213.4L557,213.4z M530.3,264.9c-1.5,3.4-10.8,4-12.8,4.1c0,0-11.3-0.3-13.1-4.1
			c-1.7-3.8-1.7-15.4-1.7-15.4l14.2-5.9l15.1,5.9C532,249.5,532,261.1,530.3,264.9L530.3,264.9z"/>
		<path class="st16" d="M641,372.7c0,26.6-54.8,68.6-62.7,76.6c-4.1,4.1-7,7.1-7.6,7.9c-1.7,2.2-4.4,2.6-6.2,2.6
			c-1.2-0.1-2-0.2-2-0.2s0.8,0.2,2,0.2c3.3,0.3,9.3,1.4,6.6,4.6c-1.3,1.4-8.4,3.7-13.2,0.9c-7.4-4.3-4.2-8.8-4.2-8.8
			s-2.6-0.4-3.9-2.5c-1.2-2-0.5-6.5-0.5-6.5s-4.9-3.4-1.6-6.5c1.3-1.2,5.8-1.6,11.8-3.3c7.7-2.2,15-1.2,20.2-5.1
			c1.4-1,47.2-43.3,42.4-61.3c-2.4-9.2-36.7-23.8-36.7-23.8l14.5-22.8c0,0-0.3,0.2,0.8,1.1C608.8,333.5,641,356.4,641,372.7
			L641,372.7z"/>
		<path class="st9" d="M600.6,326.2l-1-1.4l-14.5,22.9l13.5,6.4c0,0-5.8-5.3-5.8-7c0-1.7,2-5.3,2.8-6.9
			C596.3,338.6,600.6,326.2,600.6,326.2L600.6,326.2z"/>
		<path class="st16" d="M485.8,627h-11c0,0-11.4,50.5-11.4,80c0,29.5,1.5,65.8,1.5,65.8L485.8,627z"/>
		<path class="st16" d="M569.5,621.7l-8.9,2.9c0,0,1.5,46.2,8.9,83.2c7.4,37,13.7,63.8,13.7,63.8L569.5,621.7z"/>
	</g>
</g>
<path class="st21" d="M528.9,356.5c-1.3-6.4-6.7-13.3-17.4-13.3c-7.7,0-15.6,5.9-15,12c0.1,0.8,0.3,1.9,0.6,2.5
	c0.3-0.1,3.9-0.9,3.9-0.9c0-0.1,0-0.1,0-0.2c-0.7-7,3.8-11.2,11.3-11.2c5.3,0,9.5,5.5,10.1,11.3c0.9,8.9-4,17.8-9.5,17.8
	c-0.9,0-3.1-0.6-2.9-2.5l1.1-25.3l-4.9,1.8l-3.2,29.4l5.7-0.9l0.3-1.7c2.2,1.7,5,3.1,8.4,3.1C525.8,378.3,531.7,369.8,528.9,356.5
	L528.9,356.5z"/>
</svg>
